PathFileType	4	(X/Y/Z)	/Users/itak/Documents/Research/Walk-IL/dataset/trc/00582_00009.trc
DataRate	CameraRate	NumFrames	NumMarkers	Units	OrigDataRate	OrigDataStartFrame	OrigNumFrames
100.000000	100.000000	4	54	mm	100.000000	249	499
Frame#	Time	RPSI			LPSI			L3			STRN			C7			CLAV			RBAK			LBAK			LSHO			LUPA			LAEL			LAOL			LWTS			LWPS			LFRA			LHPS			LHTS			RSHO			RUPA			RAEL			RAOL			RWTS			RWPS			RFRA			RIFD			RHTS			RHPS			RBHD			LFHD			RFHD			LBHD			LHIP			RHIP			RASI			LASI			LKNE			LTHI			LANK			LTIP			LTOE			LMT1			LMT5			LHEE			RKNE			RTHI			RANK			RTIP			RTOE			RMT1			RMT5			RHEE			LIFD			T10			*53			
		X1	Y1	Z1	X2	Y2	Z2	X3	Y3	Z3	X4	Y4	Z4	X5	Y5	Z5	X6	Y6	Z6	X7	Y7	Z7	X8	Y8	Z8	X9	Y9	Z9	X10	Y10	Z10	X11	Y11	Z11	X12	Y12	Z12	X13	Y13	Z13	X14	Y14	Z14	X15	Y15	Z15	X16	Y16	Z16	X17	Y17	Z17	X18	Y18	Z18	X19	Y19	Z19	X20	Y20	Z20	X21	Y21	Z21	X22	Y22	Z22	X23	Y23	Z23	X24	Y24	Z24	X25	Y25	Z25	X26	Y26	Z26	X27	Y27	Z27	X28	Y28	Z28	X29	Y29	Z29	X30	Y30	Z30	X31	Y31	Z31	X32	Y32	Z32	X33	Y33	Z33	X34	Y34	Z34	X35	Y35	Z35	X36	Y36	Z36	X37	Y37	Z37	X38	Y38	Z38	X39	Y39	Z39	X40	Y40	Z40	X41	Y41	Z41	X42	Y42	Z42	X43	Y43	Z43	X44	Y44	Z44	X45	Y45	Z45	X46	Y46	Z46	X47	Y47	Z47	X48	Y48	Z48	X49	Y49	Z49	X50	Y50	Z50	X51	Y51	Z51	X52	Y52	Z52	X53	Y53	Z53	X54	Y54	Z54	

250	2.49	-247.2549591064453	1000.814758300781	584.590087890625	-208.7268371582031	995.387939453125	457.1312866210938	-222.2095794677734	1099.495971679688	524.0936889648438	24.1757926940918	1273.009155273438	574.8017578125	-156.8756561279297	1494.824462890625	564.7484130859375	11.26314163208008	1384.571044921875	573.4551391601562	-245.0051879882812	1373.0458984375	636.3384399414062	-181.9751739501953	1445.701782226562	469.1613159179688	-74.99478149414062	1465.364013671875	397.5750732421875	-90.53020477294922	1340.66845703125	316.5860290527344	-93.72807312011719	1122.257690429688	284.3917846679688	-178.2598419189453	1117.527709960938	340.6573181152344	-6.949347496032715	877.24072265625	320.8590087890625	-56.40683364868164	857.4605712890625	251.2460327148438	-74.15524291992188	1036.47802734375	273.9190673828125	-50.56189727783203	797.0308837890625	258.7532348632812	4.847422122955322	798.999755859375	298.5602111816406	-121.8198394775391	1450.720947265625	724.2186279296875	-151.0130004882812	1388.794677734375	789.1469116210938	-157.7033386230469	1105.103515625	854.391357421875	-206.9228515625	1081.435546875	821.8508911132812	-1.886778235435486	895.2030029296875	855.6890258789062	-56.70069885253906	875.5938110351562	913.9658813476562	-144.4059448242188	1050.667358398438	867.0789794921875	18.20763969421387	726.5933227539062	873.0845947265625	31.07429504394531	809.1680908203125	886.3239135742188	-32.62540817260742	804.4472045898438	923.2478637695312	-63.48826217651367	1668.053100585938	655.4630737304688	80.45125579833984	1685.998657226562	506.4713745117188	76.11029052734375	1682.19091796875	650.2713012695312	-51.76178741455078	1670.3046875	490.3435363769531	-43.53303527832031	919.4929809570312	373.5289916992188	-170.5949554443359	932.0862426757812	740.02978515625	-67.11514282226562	958.0940551757812	711.554443359375	10.59691333770752	946.5902099609375	447.69287109375	136.4330139160156	520.1597900390625	484.1617431640625	73.31257629394531	668.815673828125	421.8528747558594	105.9326400756836	36.3915901184082	535.1599731445312	99.22705841064453	264.2864990234375	501.8104248046875	300.1362915039062	93.07277679443359	595.0899047851562	231.4069976806641	77.20440673828125	628.2556762695312	223.9109954833984	56.90414428710938	524.9273681640625	35.03387069702148	34.75188827514648	585.0999755859375	-185.1194305419922	490.2183837890625	693.5233154296875	-144.8742980957031	776.796142578125	743.3002319335938	-337.6075134277344	43.07636260986328	628.6475219726562	-205.5909118652344	347.88525390625	675.5628051757812	-117.3462142944336	40.24727249145508	674.4749755859375	-160.9073944091797	41.00714874267578	612.0927124023438	-224.0211486816406	39.186767578125	698.5448608398438	-367.9439392089844	37.41533660888672	556.8319091796875	-33.57839965820312	722.8839111328125	330.4215393066406	-218.1135406494141	1225.978881835938	527.1535034179688	nan	nan	nan	
251	2.5	-239.17822265625	999.7408447265625	587.66162109375	-201.3278045654297	994.0995483398438	460.0612182617188	-214.6429595947266	1098.255859375	526.846435546875	32.38108444213867	1271.546142578125	576.20263671875	-148.4601440429688	1493.558959960938	567.0711059570312	19.62402534484863	1383.170288085938	574.8031005859375	-236.2112731933594	1371.898315429688	639.3213500976562	-174.2751312255859	1444.403564453125	471.6844177246094	-67.64486694335938	1463.879150390625	399.4283142089844	-83.93582916259766	1339.078002929688	318.7274169921875	-87.77017211914062	1120.468505859375	286.8531188964844	-171.5809020996094	1116.060180664062	344.0770568847656	-1.69644558429718	875.0862426757812	323.08056640625	-51.69842910766602	855.5607299804688	253.8036499023438	-68.46610260009766	1034.67333984375	276.448486328125	-46.18943405151367	795.0839233398438	261.3365783691406	9.439655303955078	796.734130859375	300.8365173339844	-112.4717025756836	1449.520141601562	726.3680419921875	-141.1579742431641	1387.541870117188	791.5115966796875	-146.7526092529297	1103.902099609375	856.85693359375	-196.0595397949219	1080.078369140625	824.6029663085938	9.460285186767578	894.2451782226562	857.1346435546875	-44.86681365966797	874.5617065429688	915.8247680664062	-133.3015289306641	1049.4443359375	869.5337524414062	30.08296585083008	725.6705932617188	874.56689453125	42.79685974121094	808.2784423828125	887.639892578125	-20.63901519775391	803.5148315429688	925.0409545898438	-54.39676666259766	1666.73388671875	657.1644897460938	88.36722564697266	1684.56396484375	507.0810546875	85.18042755126953	1680.783447265625	650.9259033203125	-43.91281127929688	1668.867065429688	491.957763671875	-36.60197830200195	917.9347534179688	375.781494140625	-162.134033203125	931.087646484375	742.7310180664062	-58.61466979980469	956.74072265625	713.8740234375	17.93286895751953	945.042724609375	449.6827697753906	143.2063598632812	518.9738159179688	485.9349060058594	79.63762664794922	666.9583129882812	423.2245788574219	131.1166381835938	35.17966842651367	541.4796142578125	115.2756881713867	262.6491088867188	505.8616638183594	324.0378723144531	99.25286102294922	598.0662231445312	256.3572082519531	81.50166320800781	632.2962646484375	248.2501983642578	59.69623947143555	529.2982177734375	61.12676239013672	31.65621566772461	592.1906127929688	-182.1616973876953	489.9567565917969	694.2344970703125	-137.7573699951172	775.6893920898438	745.0909423828125	-337.3636169433594	43.58685302734375	628.5816040039062	-203.8951110839844	347.8888244628906	676.0513305664062	-117.3739700317383	40.19295501708984	674.5557250976562	-160.8788604736328	41.08939361572266	612.1666259765625	-224.0378875732422	39.10178375244141	698.6672973632812	-367.8616027832031	38.25399017333984	556.8327026367188	-29.33725738525391	720.777099609375	332.9715881347656	-210.2960357666016	1224.75732421875	529.9630737304688	nan	nan	nan	
252	2.51	-230.9464721679688	998.5803833007812	590.6430053710938	-193.7392730712891	992.6842651367188	462.9080505371094	-206.9364471435547	1096.913208007812	529.4949951171875	40.67122650146484	1270.023315429688	577.5274658203125	-139.9772033691406	1492.211669921875	569.244384765625	28.06557846069336	1381.712158203125	576.0609741210938	-227.3614196777344	1370.667724609375	642.1407470703125	-166.4779663085938	1443.015258789062	474.0567016601562	-60.18925476074219	1462.314086914062	401.1677856445312	-77.21636199951172	1337.380981445312	320.7723083496094	-81.59306335449219	1118.595581054688	289.2651977539062	-164.8032531738281	1114.521606445312	347.2894592285156	3.689384460449219	872.8218383789062	325.2735290527344	-46.84012222290039	853.5525512695312	256.32666015625	-62.61919784545898	1032.76416015625	278.9034118652344	-41.65262603759766	793.0258178710938	263.8861999511719	14.1629056930542	794.3615112304688	303.0965270996094	-103.0839233398438	1448.237915039062	728.3718872070312	-131.2754669189453	1386.191040039062	793.7099609375	-135.8768310546875	1102.593017578125	859.1097412109375	-185.1613311767578	1078.6396484375	827.0889282226562	20.70756530761719	893.1730346679688	858.3726806640625	-33.13404083251953	873.4186401367188	917.450439453125	-122.2546997070312	1048.125366210938	871.787109375	41.87142181396484	724.6303100585938	875.8292846679688	54.43064117431641	807.2843017578125	888.7235717773438	-8.762866973876953	802.471435546875	926.5985717773438	-45.30228805541992	1665.333984375	658.7108154296875	96.35926818847656	1683.053588867188	507.6131896972656	94.27119445800781	1679.31298828125	651.51611328125	-35.97573852539062	1667.371826171875	493.4464721679688	-29.4660816192627	916.2363891601562	378.0614013671875	-153.6092376708984	930.0531005859375	745.4047241210938	-49.99236297607422	955.35302734375	716.1758422851562	25.46510124206543	943.4070434570312	451.6704711914062	150.1017456054688	517.65185546875	487.7388916015625	86.08633422851562	664.945556640625	424.7499084472656	155.2208404541016	34.45432281494141	547.2179565429688	130.7855834960938	261.2154541015625	509.65185546875	346.8096313476562	105.5069885253906	600.1316528320312	280.2383728027344	85.99356842041016	635.53125	271.38671875	62.77460098266602	532.872802734375	86.25662994384766	29.15811157226562	598.7735595703125	-179.0476379394531	489.7397155761719	694.9424438476562	-130.3020782470703	774.5352172851562	746.7255859375	-337.10009765625	44.17046737670898	628.514404296875	-202.0940399169922	347.9605407714844	676.5643310546875	-117.3877334594727	40.12223434448242	674.6318969726562	-160.8435974121094	41.188720703125	612.2576293945312	-224.0569763183594	39.01337432861328	698.7843627929688	-367.7623901367188	39.22574996948242	556.829345703125	-25.02545547485352	718.556396484375	335.5374755859375	-202.3791351318359	1223.436279296875	532.6367797851562	nan	nan	nan	
253	2.52	-222.5541687011719	997.34375	593.5286254882812	-185.9725799560547	991.1499633789062	465.6720275878906	-199.0866546630859	1095.480102539062	532.0428466796875	49.05012130737305	1268.45703125	578.7695922851562	-131.43212890625	1490.791381835938	571.2683715820312	36.58486175537109	1380.207275390625	577.2243041992188	-218.4675750732422	1369.363647460938	644.80078125	-158.5870513916016	1441.54541015625	476.2770080566406	-52.63898086547852	1460.673706054688	402.7817687988281	-70.37283325195312	1335.584350585938	322.7174072265625	-75.18628692626953	1116.654418945312	291.6375122070312	-157.9218292236328	1112.908325195312	350.3033447265625	9.216229438781738	870.46630859375	327.4326171875	-41.82395172119141	851.447998046875	258.8085632324219	-56.61142730712891	1030.755249023438	281.2803344726562	-36.9448356628418	790.8701782226562	266.392822265625	19.03488922119141	791.8991088867188	305.3300170898438	-93.65444946289062	1446.880981445312	730.233642578125	-121.3684158325195	1384.752685546875	795.7415771484375	-125.055419921875	1101.178955078125	861.1603393554688	-174.2483978271484	1077.131591796875	829.3361206054688	31.85018539428711	891.98876953125	859.4033203125	-21.50679016113281	872.1717529296875	918.84814453125	-111.257453918457	1046.720703125	873.8432006835938	53.54446029663086	723.476318359375	876.8916015625	65.96928405761719	806.1941528320312	889.572265625	3.000848770141602	801.3185424804688	927.9195556640625	-36.20485687255859	1663.8662109375	660.0953979492188	104.4352645874023	1681.480712890625	508.0600891113281	103.3788757324219	1677.795532226562	652.0257568359375	-27.95439720153809	1665.831909179688	494.8038940429688	-22.12573432922363	914.410888671875	380.3763122558594	-145.0347595214844	928.994873046875	748.0598754882812	-41.24712371826172	953.9370727539062	718.4605102539062	33.18981552124023	941.69384765625	453.6573791503906	157.1670227050781	516.2218627929688	489.5673217773438	92.71321868896484	662.81689453125	426.426025390625	178.1055145263672	34.1163330078125	552.39208984375	145.7038421630859	259.9295043945312	513.2137451171875	368.3571166992188	111.6335144042969	601.3551025390625	302.9302673339844	90.50249481201172	638.0264282226562	293.1899719238281	65.96880340576172	535.7195434570312	110.2433166503906	27.18704795837402	604.876953125	-175.7507934570312	489.5697326660156	695.6569213867188	-122.3549499511719	773.3040161132812	748.1190185546875	-336.8257446289062	44.83018493652344	628.4586181640625	-200.1725311279297	348.1022338867188	677.1176147460938	-117.3866882324219	40.03343963623047	674.7066650390625	-160.798828125	41.29954528808594	612.3676147460938	-224.0760650634766	38.91846466064453	698.8975830078125	-367.6465454101562	40.34295272827148	556.8287963867188	-20.48509788513184	716.2523193359375	338.0089111328125	-194.3557739257812	1222.023193359375	535.17431640625	nan	nan	nan	
